<?xml version="1.0" encoding="UTF-8"?>
<svg version="1.1" xmlns="http://www.w3.org/2000/svg" width="141" height="140">
<path d="M0 0 C6.647325 -0.58869299 11.86881801 2.15003331 17.6875 5 C22.66060288 6.90314643 26.30631045 6.90447549 31.35546875 5.25390625 C32.36996094 4.79886719 33.38445312 4.34382813 34.4296875 3.875 C35.45707031 3.42253906 36.48445313 2.97007813 37.54296875 2.50390625 C39.07729152 1.79378722 40.60499296 1.06859727 42.1171875 0.3125 C49.03834281 -0.3348023 54.1955688 0.11675784 59.7421875 4.63671875 C63.34512912 7.93652826 64.81019334 10.51854537 66.1171875 15.3125 C66.38436981 27.02874712 64.29746885 38.98345704 62.69799805 50.56152344 C62.30075517 53.4662541 61.92668609 56.37344042 61.55273438 59.28125 C61.29828432 61.14863008 61.04247497 63.01582555 60.78515625 64.8828125 C60.67769577 65.74222443 60.57023529 66.60163635 60.45951843 67.48709106 C59.61504959 73.34501698 58.2140422 77.87925702 53.3671875 81.6875 C49.14028826 82.86163868 45.29476267 83.43212471 41.32421875 81.390625 C36.39739022 77.55739456 33.28430532 72.35599208 30.01171875 67.1171875 C28.24656264 64.50402856 26.42298973 62.44958499 24.1171875 60.3125 C23.78509277 60.80129639 23.45299805 61.29009277 23.11083984 61.79370117 C21.58026376 64.03541381 20.03639258 66.26765625 18.4921875 68.5 C17.97011719 69.26892578 17.44804688 70.03785156 16.91015625 70.83007812 C13.72015078 75.41817241 10.70852253 79.08839077 6.1171875 82.3125 C0.95485755 83.04997571 -2.57423821 82.25016429 -6.8828125 79.3125 C-9.99487334 74.32673328 -10.71306707 69.48653693 -11.453125 63.77734375 C-11.57968475 62.86223526 -11.70624451 61.94712677 -11.8366394 61.00428772 C-12.10197455 59.07100093 -12.3622181 57.13700932 -12.61767578 55.20239258 C-13.00353247 52.28238951 -13.40459223 49.36480773 -13.80859375 46.44726562 C-18.11857045 14.94474297 -18.11857045 14.94474297 -13.3984375 8.1875 C-9.36636518 3.19201217 -6.38281515 1.05938841 0 0 Z M-3.8203125 12.0625 C-9.97501995 21.76082689 -4.43586998 39.22584162 -2.8828125 50.0625 C-2.59299946 52.12749897 -2.30393066 54.19260254 -2.015625 56.2578125 C-1.3132665 61.2772893 -0.60083685 66.29524122 0.1171875 71.3125 C1.4371875 71.3125 2.7571875 71.3125 4.1171875 71.3125 C5.7089245 69.79697462 5.7089245 69.79697462 6.9921875 67.69921875 C7.50265625 66.94576172 8.013125 66.19230469 8.5390625 65.41601562 C9.05984375 64.61873047 9.580625 63.82144531 10.1171875 63 C11.15290701 61.43744792 12.19439869 59.8787034 13.2421875 58.32421875 C13.69851562 57.62772217 14.15484375 56.93122559 14.625 56.21362305 C16.75886337 53.49497219 18.85090481 51.58877986 22.265625 50.84375 C23.00039062 50.8334375 23.73515625 50.823125 24.4921875 50.8125 C25.22179687 50.7815625 25.95140625 50.750625 26.703125 50.71875 C33.56828592 52.40726854 37.34907674 59.08608568 40.9921875 64.625 C41.48976562 65.36556641 41.98734375 66.10613281 42.5 66.86914062 C43.71381626 68.67819371 44.91665155 70.4946066 46.1171875 72.3125 C47.1071875 71.9825 48.0971875 71.6525 49.1171875 71.3125 C49.95801277 65.55144618 50.79399549 59.78971671 51.62573242 54.02734375 C51.90862119 52.07207842 52.19277257 50.11699529 52.47827148 48.16210938 C53.39468406 41.88364001 54.27908788 35.60191515 55.1171875 29.3125 C55.28879395 28.03826172 55.46040039 26.76402344 55.63720703 25.45117188 C55.81485596 23.87432617 55.81485596 23.87432617 55.99609375 22.265625 C56.09607666 21.40614258 56.19605957 20.54666016 56.29907227 19.66113281 C55.98916524 15.65938029 53.88646362 13.08177612 51.1171875 10.3125 C46.17216338 9.57600705 43.27744525 10.55796858 38.8046875 12.75 C30.55124479 16.724298 22.81579729 17.32234505 14.1171875 14.3125 C12.72861132 13.63116505 11.35294112 12.92283032 9.9921875 12.1875 C4.98755682 9.55086554 1.18984329 9.07772634 -3.8203125 12.0625 Z " fill="#085953" transform="translate(53.8828125,23.6875)"/>
<path d="M0 0 C0.66 0 1.32 0 2 0 C2.33 0.99 2.66 1.98 3 3 C3.66 3.66 4.32 4.32 5 5 C5.34375 7.51171875 5.34375 7.51171875 5.5 10.6875 C5.88950849 17.06127534 6.67210045 23.27309428 7.59765625 29.58984375 C7.97269419 32.76856334 8.0322789 35.80438887 8 39 C8.43941523 41.26566343 8.43941523 41.26566343 9 43 C8.360625 43.144375 7.72125 43.28875 7.0625 43.4375 C5.02454854 43.81007181 5.02454854 43.81007181 4 45 C3.67 45.66 3.34 46.32 3 47 C2.34 47 1.68 47 1 47 C0.91959473 46.24493164 0.83918945 45.48986328 0.75634766 44.71191406 C0.38285543 41.22421061 0.00395491 37.73711397 -0.375 34.25 C-0.56449219 32.46916016 -0.56449219 32.46916016 -0.7578125 30.65234375 C-1.53547952 17.98167057 -1.53547952 17.98167057 -5 6 C-4.72057545 4.32345271 -4.39171753 2.65391846 -4 1 C-2.02 1.495 -2.02 1.495 0 2 C0 1.34 0 0.68 0 0 Z " fill="#035B55" transform="translate(42,35)"/>
<path d="M0 0 C0.33 0 0.66 0 1 0 C1.08040527 0.74459473 1.16081055 1.48918945 1.24365234 2.25634766 C2.97732446 18.75196757 2.97732446 18.75196757 5.1875 35.1875 C5.89774086 39.86569806 6.18908452 44.2728871 6 49 C5.67 49 5.34 49 5 49 C4.80083984 47.75283203 4.80083984 47.75283203 4.59765625 46.48046875 C4.33275391 44.85044922 4.33275391 44.85044922 4.0625 43.1875 C3.88847656 42.10855469 3.71445312 41.02960938 3.53515625 39.91796875 C3.06128079 36.95066644 3.06128079 36.95066644 2 34 C1.82066258 32.23224545 1.68005591 30.46043504 1.5625 28.6875 C1.12297696 22.84609706 0.32260729 17.1077728 -0.59765625 11.32421875 C-1.01936025 7.84004297 -1.13501989 4.50616155 -1 1 C-0.67 0.67 -0.34 0.34 0 0 Z " fill="#1E5956" transform="translate(47,39)"/>
<path d="M0 0 C6.62177926 0.30656385 11.22125154 1.74288723 17 5 C17 5.33 17 5.66 17 6 C13.57261085 6.30241669 12.04068367 6.02158725 8.9375 4.375 C6.13256109 2.6476683 6.13256109 2.6476683 3.625 3.8125 C3.08875 4.204375 2.5525 4.59625 2 5 C2 3.68 2 2.36 2 1 C1.34 0.67 0.68 0.34 0 0 Z " fill="#0F544D" transform="translate(55,24)"/>
<path d="M0 0 C5.2452606 1.38845134 7.96402435 4.72578654 11 9 C12.375 11.9375 12.375 11.9375 13 14 C12.01 13.67 11.02 13.34 10 13 C9.67 12.01 9.34 11.02 9 10 C8.34 9.34 7.68 8.68 7 8 C6.525625 7.484375 6.05125 6.96875 5.5625 6.4375 C3.94783153 4.75506028 3.94783153 4.75506028 1 4 C0.3125 1.9375 0.3125 1.9375 0 0 Z " fill="#125550" transform="translate(81,74)"/>
<path d="M0 0 C0.99 0 1.98 0 3 0 C1.59023295 3.03852705 -0.08870228 5.5939595 -2.125 8.25 C-2.66382812 8.95640625 -3.20265625 9.6628125 -3.7578125 10.390625 C-4.16773437 10.92171875 -4.57765625 11.4528125 -5 12 C-5.33 11.01 -5.66 10.02 -6 9 C-5.38125 8.443125 -4.7625 7.88625 -4.125 7.3125 C-1.93893621 4.93354822 -1.01214301 3.03642904 0 0 Z " fill="#17524E" transform="translate(69,91)"/>
<path d="M0 0 C0.2475 0.61875 0.495 1.2375 0.75 1.875 C2.27086814 4.46047584 3.20046219 4.98905579 6 6 C7.99110401 6.38290462 9.99100513 6.72604615 12 7 C12 7.33 12 7.66 12 8 C5.01057082 8.602537 5.01057082 8.602537 2.1328125 6.88671875 C0.69138998 5.66254412 -0.66278229 4.33721771 -2 3 C-1.34 2.01 -0.68 1.02 0 0 Z " fill="#1C5950" transform="translate(93,98)"/>
<path d="M0 0 C0 0.33 0 0.66 0 1 C-1.65 1 -3.3 1 -5 1 C-5 1.99 -5 2.98 -5 4 C-6.98 4.66 -8.96 5.32 -11 6 C-4.97191011 -1.65730337 -4.97191011 -1.65730337 0 0 Z " fill="#1F5857" transform="translate(52,26)"/>
<path d="M0 0 C1.32 0.33 2.64 0.66 4 1 C2.7420615 3.51587701 1.01248992 5.04849462 -1 7 C-1.66 7.66 -2.32 8.32 -3 9 C-2.30058404 5.85262818 -1.23921302 2.97411124 0 0 Z " fill="#14544E" transform="translate(76,81)"/>
</svg>
